<svg id="visual" viewBox="0 0 960 540" width="960" height="540" xmlns="http://www.w3.org/2000/svg" xmlns:xlink="http://www.w3.org/1999/xlink" version="1.1"><rect width="960" height="540" fill="#091016"></rect><g><g transform="translate(599 465)"><path d="M0 -104.1L90.1 -52L90.1 52L0 104.1L-90.1 52L-90.1 -52Z" fill="#2e363e"></path></g><g transform="translate(650 112)"><path d="M0 -54L46.8 -27L46.8 27L0 54L-46.8 27L-46.8 -27Z" fill="#2e363e"></path></g><g transform="translate(128 501)"><path d="M0 -94L81.4 -47L81.4 47L0 94L-81.4 47L-81.4 -47Z" fill="#2e363e"></path></g><g transform="translate(29 288)"><path d="M0 -73L63.2 -36.5L63.2 36.5L0 73L-63.2 36.5L-63.2 -36.5Z" fill="#2e363e"></path></g><g transform="translate(844 487)"><path d="M0 -69L59.8 -34.5L59.8 34.5L0 69L-59.8 34.5L-59.8 -34.5Z" fill="#2e363e"></path></g><g transform="translate(893 124)"><path d="M0 -70L60.6 -35L60.6 35L0 70L-60.6 35L-60.6 -35Z" fill="#2e363e"></path></g><g transform="translate(488 253)"><path d="M0 -88L76.2 -44L76.2 44L0 88L-76.2 44L-76.2 -44Z" fill="#2e363e"></path></g><g transform="translate(296 81)"><path d="M0 -55L47.6 -27.5L47.6 27.5L0 55L-47.6 27.5L-47.6 -27.5Z" fill="#2e363e"></path></g><g transform="translate(330 416)"><path d="M0 -88L76.2 -44L76.2 44L0 88L-76.2 44L-76.2 -44Z" fill="#2e363e"></path></g><g transform="translate(58 71)"><path d="M0 -52L45 -26L45 26L0 52L-45 26L-45 -26Z" fill="#2e363e"></path></g><g transform="translate(746 298)"><path d="M0 -83L71.9 -41.5L71.9 41.5L0 83L-71.9 41.5L-71.9 -41.5Z" fill="#2e363e"></path></g></g></svg>